PathFileType	4	(X/Y/Z)	./resultDataOpenSim/trcMotMarkerGrf/sub09/qtm-13-07.trc
DataRate	CameraRate	NumFrames	NumMarkers	Units	OrigDataRate	OrigDataStartFrame	OrigNumFrames
250.000000	250.000000	6	24	m	250.000000	1	483
Frame#	Time	L.Toe.Tip			R.Toe.Tip			L.Ankle.Lat			R.Ankle.Lat			L.Ankle.Med			R.Ankle.Med			L.Heel			R.Heel			L.Knee.Lat			R.Knee.Lat			L.Knee.Med			R.Knee.Med			L.Thigh.Upper			R.Thigh.Upper			L.ASIS			R.ASIS			V.Sacral			L.Acromium			R.Acromium			C7			L.Elbow			R.Elbow			L.Wrist.Lat			R.Wrist.Lat
		X1	Y1	Z1	X2	Y2	Z2	X3	Y3	Z3	X4	Y4	Z4	X5	Y5	Z5	X6	Y6	Z6	X7	Y7	Z7	X8	Y8	Z8	X9	Y9	Z9	X10	Y10	Z10	X11	Y11	Z11	X12	Y12	Z12	X13	Y13	Z13	X14	Y14	Z14	X15	Y15	Z15	X16	Y16	Z16	X17	Y17	Z17	X18	Y18	Z18	X19	Y19	Z19	X20	Y20	Z20	X21	Y21	Z21	X22	Y22	Z22	X23	Y23	Z23	X24	Y24	Z24

1	0	-1.5559871	0.036732362	-0.05864178	-1.0739365	0.069903493	0.08700125	-1.7032095	0.077783626	-0.084349627	-1.2239053	0.071635279	0.10325294	-1.6828772	0.092348359	0.011682882	-1.2055871	0.10942412	0.013913883	NaN	NaN	NaN	-1.2780115	0.040050152	0.042319608	-1.5643998	0.47061854	-0.146013	-1.2220892	0.52744239	0.1522621	-1.5622022	0.47205078	-0.019870189	-1.2123852	0.51142356	0.027784021	-1.4487659	0.87759352	-0.18966222	-1.4279959	0.87714564	0.18085377	-1.3432845	0.9486322	-0.13360567	-1.3434688	0.95639635	0.10631056	-1.5067285	1.0208131	-0.0094470639	-1.284671	1.3996505	-0.16760958	-1.338662	1.4150535	0.15703222	-1.3756349	1.4626579	-0.013176486	-1.3984043	1.0387912	-0.24977483	-1.5260137	1.1083596	0.21343906	-1.1506689	0.92931779	-0.20055725	-1.47892	0.85140086	0.29581086
2	0.004	-1.5559928	0.036660563	-0.05864084	-1.054316	0.071307223	0.088113619	-1.7029257	0.078589706	-0.084233778	-1.2043925	0.070230679	0.10385659	-1.6814534	0.093153808	0.011422808	-1.1864954	0.10850628	0.014733325	NaN	NaN	NaN	-1.2574139	0.037703286	0.042861324	-1.561869	0.47071807	-0.14595945	-1.2151369	0.526481	0.1525921	-1.5603965	0.47204042	-0.019777216	-1.2049977	0.51025947	0.028121036	-1.4429379	0.87632721	-0.18936713	-1.4221565	0.87543028	0.18101419	-1.3371277	0.94710695	-0.13354062	-1.3372157	0.95476132	0.10653815	-1.5003153	1.0192452	-0.0093207788	-1.2787603	1.3983443	-0.16721796	-1.3333277	1.4135225	0.15740903	-1.3701657	1.4612759	-0.013139986	-1.3909332	1.0369479	-0.25002591	-1.5200741	1.1064205	0.21312247	-1.1420668	0.9303864	-0.19978037	-1.4735819	0.84985549	0.2965367
3	0.008	-1.5559872	0.036593561	-0.05866045	-1.0348194	0.07288505	0.089235831	-1.7026823	0.079384617	-0.084137228	-1.1848977	0.068965485	0.10452453	-1.6803295	0.093947909	0.011238095	-1.1674738	0.10776199	0.015584652	NaN	NaN	NaN	-1.2369012	0.035561502	0.043421951	-1.5593296	0.47079931	-0.14595335	-1.2082256	0.52543701	0.15281571	-1.558346	0.47205228	-0.019727454	-1.1976885	0.50904288	0.028435752	-1.4370859	0.87505868	-0.18909873	-1.4162333	0.87374642	0.18120057	-1.3309817	0.94554661	-0.13348294	-1.3309189	0.95308499	0.10675363	-1.4939521	1.0176421	-0.0092958015	-1.2728262	1.3970325	-0.16684458	-1.3279253	1.4119556	0.15777338	-1.3646179	1.4598587	-0.01289728	-1.3834244	1.03509	-0.25019005	-1.5140951	1.1044578	0.2128193	-1.1334739	0.93140829	-0.19898781	-1.4681527	0.84830497	0.29723006
4	0.012	-1.5559626	0.036526789	-0.058704076	-1.0154482	0.074771935	0.090335124	-1.7024688	0.080188313	-0.084073864	-1.1654804	0.067938081	0.10525916	-1.6794519	0.094738779	0.011081158	-1.14857	0.10728557	0.016485658	NaN	NaN	NaN	-1.2165407	0.033778421	0.044029737	-1.556703	0.47085463	-0.14600358	-1.2014568	0.52424942	0.15294783	-1.5559656	0.47207417	-0.01972484	-1.1904802	0.50773906	0.028712031	-1.4311882	0.87378715	-0.18888343	-1.4101882	0.87207746	0.18141456	-1.3248436	0.943949	-0.1334313	-1.3245177	0.95136344	0.10695905	-1.4876425	1.0159947	-0.0093885597	-1.2668534	1.3957124	-0.16648839	-1.3224364	1.4103473	0.1581277	-1.3588895	1.458399	-0.012328631	-1.3758632	1.0332212	-0.25025383	-1.5080314	1.1024487	0.21253169	-1.1248915	0.93235616	-0.19818567	-1.4625421	0.84673921	0.29787325
5	0.016	-1.5559165	0.036452126	-0.058764695	-0.99620006	0.0770246	0.091368488	-1.702248	0.081027211	-0.084049131	-1.1462647	0.067195786	0.10602313	-1.6785896	0.095545482	0.010858194	-1.1298631	0.10709266	0.017430106	NaN	NaN	NaN	-1.1964216	0.032413009	0.044708833	-1.5539126	0.47088622	-0.14608601	-1.1950431	0.52287849	0.15309045	-1.5533422	0.47207773	-0.01974758	-1.18336	0.50634073	0.028942089	-1.4252724	0.87252096	-0.18871487	-1.4040276	0.87039326	0.18164463	-1.3187075	0.94233953	-0.13337543	-1.317991	0.94961699	0.10715802	-1.4812962	1.01433	-0.0094241667	-1.2608452	1.3943899	-0.16613158	-1.3168782	1.4087164	0.15847772	-1.3529883	1.4569267	-0.011584297	-1.368263	1.0313517	-0.25023941	-1.5018735	1.1003931	0.21226209	-1.1163318	0.93322064	-0.19739384	-1.4566842	0.84515161	0.29845671
6	0.02	-1.5558526	0.036370295	-0.058836958	-0.9770996	0.079652352	0.092364818	-1.7019923	0.081903385	-0.084066475	-1.1273423	0.066748279	0.10679733	-1.6775715	0.096396875	0.010524221	-1.1114433	0.1071612	0.018393816	NaN	NaN	NaN	-1.1765957	0.031390238	0.045458349	-1.5509626	0.47089998	-0.14617693	-1.1890929	0.5213097	0.15330622	-1.5505708	0.47204913	-0.019779108	-1.1763071	0.50485733	0.02912021	-1.4193952	0.87127204	-0.18856483	-1.3977681	0.86867742	0.18188252	-1.312561	0.94074513	-0.13330511	-1.3113684	0.94786151	0.10734864	-1.4747852	1.0126673	-0.0091707791	-1.2548064	1.3930744	-0.16576497	-1.3112487	1.407082	0.15882871	-1.3470258	1.4554779	-0.010974407	-1.3606309	1.0294808	-0.25015328	-1.4956667	1.098336	0.21203404	-1.1078052	0.93400211	-0.19662419	-1.4505926	0.84354586	0.29898243
